<?xml version="1.0" encoding="utf-8"?>
<!-- Generator: Adobe Illustrator 21.1.0, SVG Export Plug-In . SVG Version: 6.00 Build 0)  -->
<svg version="1.1" id="Слой_1" xmlns="http://www.w3.org/2000/svg" xmlns:xlink="http://www.w3.org/1999/xlink" x="0px" y="0px"
	 viewBox="0 0 24 24" style="enable-background:new 0 0 24 24;" xml:space="preserve">
<g>
	<path d="M12,23C5.9,23,1,18.1,1,12S5.9,1,12,1s11,4.9,11,11S18.1,23,12,23z M12,3c-5,0-9,4-9,9c0,5,4,9,9,9c5,0,9-4,9-9
		C21,7,17,3,12,3z"/>
</g>
<g>
	<path d="M12,16c-2.2,0-4-1.8-4-4c0-2.2,1.8-4,4-4c2.2,0,4,1.8,4,4C16,14.2,14.2,16,12,16z M12,10c-1.1,0-2,0.9-2,2c0,1.1,0.9,2,2,2
		c1.1,0,2-0.9,2-2C14,10.9,13.1,10,12,10z"/>
</g>
</svg>
