<?xml version="1.0" encoding="utf-8"?>
<!-- Generator: Adobe Illustrator 21.1.0, SVG Export Plug-In . SVG Version: 6.00 Build 0)  -->
<svg version="1.1" id="Слой_1" xmlns="http://www.w3.org/2000/svg" xmlns:xlink="http://www.w3.org/1999/xlink" x="0px" y="0px"
	 viewBox="0 0 24 24" style="enable-background:new 0 0 24 24;" xml:space="preserve">
<g>
	<path d="M16,23c-0.6,0-1-0.4-1-1v-3.9c0.1-0.8-0.2-1.4-0.7-1.9c-0.3-0.3-0.4-0.7-0.2-1c0.1-0.4,0.5-0.6,0.8-0.7
		c2.9-0.3,5.6-1.3,5.6-6c0-1.1-0.4-2.2-1.2-3.1c-0.3-0.3-0.3-0.7-0.2-1c0.3-0.8,0.3-1.6,0.1-2.4c-0.5,0.1-1.3,0.4-2.6,1.3
		c-0.2,0.2-0.5,0.2-0.8,0.1c-2.1-0.6-4.4-0.6-6.5,0C9,3.5,8.7,3.5,8.4,3.3C7.2,2.4,6.3,2.1,5.8,2C5.6,2.8,5.6,3.6,5.9,4.4
		c0.1,0.4,0.1,0.8-0.2,1C4.9,6.3,4.5,7.4,4.5,8.5c0,4.7,2.7,5.7,5.6,6c0.4,0,0.7,0.3,0.8,0.7c0.1,0.4,0,0.8-0.2,1
		c-0.5,0.5-0.7,1.1-0.7,1.8l0,0.9c0,0,0,0.1,0,0.1l0,2.9c0,0.6-0.4,1-1,1s-1-0.4-1-1v-1.7c-3,0.5-4.3-1.2-5.2-2.3
		c-0.4-0.5-0.7-0.9-1.1-1c-0.5-0.1-0.9-0.7-0.7-1.2c0.1-0.5,0.7-0.9,1.2-0.7c1,0.3,1.6,1,2.2,1.7c0.8,1.1,1.5,1.9,3.6,1.5v-0.1
		c0-0.6,0.1-1.3,0.3-1.8c-2.8-0.6-5.8-2.4-5.8-7.7c0-1.5,0.5-2.9,1.4-4C3.5,3.2,3.6,1.9,4.2,0.6C4.3,0.3,4.5,0.1,4.8,0
		c0.4-0.1,1.7-0.3,4.4,1.4c2.2-0.5,4.5-0.5,6.6,0c2.6-1.7,4-1.5,4.4-1.4c0.3,0.1,0.5,0.3,0.6,0.6c0.5,1.3,0.6,2.6,0.3,3.9
		c0.9,1.1,1.4,2.5,1.4,4c0,5.7-3.4,7.2-5.8,7.8c0.2,0.6,0.3,1.3,0.3,1.9l0,3.8C17,22.6,16.6,23,16,23z"/>
</g>
</svg>
