<?xml version="1.0" encoding="utf-8"?>
<!-- Generator: Adobe Illustrator 21.1.0, SVG Export Plug-In . SVG Version: 6.00 Build 0)  -->
<svg version="1.1" id="Слой_1" xmlns="http://www.w3.org/2000/svg" xmlns:xlink="http://www.w3.org/1999/xlink" x="0px" y="0px"
	 viewBox="0 0 24 24" style="enable-background:new 0 0 24 24;" xml:space="preserve">
<g>
	<path d="M13,23c-2.2,0-4-1.8-4-4v-3H4.3c-0.2,0-0.3,0-0.5,0c-1.6-0.2-2.8-1.8-2.5-3.4l1.4-9C3,2.1,4.2,1,5.7,1h13.9c0,0,0,0,0.1,0
		c1.6,0,3,1.2,3.3,2.9c0,0,0,0.1,0,0.1v7c0,0,0,0.1,0,0.1c-0.2,1.7-1.7,2.9-3.3,2.9h-2l-3.7,8.4C13.8,22.8,13.4,23,13,23z M10,14
		c0.6,0,1,0.4,1,1v4c0,0.9,0.6,1.6,1.4,1.9l3.6-8.1V3H5.7c-0.5,0-0.9,0.4-1,0.9l-1.4,9c-0.1,0.5,0.3,1.1,0.8,1.1c0.1,0,0.1,0,0.2,0
		H10z M18,12h1.7c0.7,0,1.2-0.4,1.3-1.1V4.1c-0.1-0.6-0.7-1.1-1.3-1.1H18V12z"/>
</g>
</svg>
