<?xml version="1.0" encoding="utf-8"?>
<!-- Generator: Adobe Illustrator 21.1.0, SVG Export Plug-In . SVG Version: 6.00 Build 0)  -->
<svg version="1.1" id="Слой_1" xmlns="http://www.w3.org/2000/svg" xmlns:xlink="http://www.w3.org/1999/xlink" x="0px" y="0px"
	 viewBox="0 0 24 24" style="enable-background:new 0 0 24 24;" xml:space="preserve">
<path d="M12.4,0H6v24h6.1c1.2,0,2.3-0.3,3.3-0.8s1.6-1.4,2.1-2.8c0.2-0.7,0.4-1.8,0.4-3.3s0.1-3.2,0.1-5.2s0-3.7-0.1-5.3
	c0-1.6-0.2-2.7-0.4-3.4c-0.3-1.2-0.9-2-1.7-2.5C15,0.2,13.9,0,12.4,0L12.4,0z M10.7,4.5h0.9c0.7,0,1.2,0.2,1.4,0.5
	c0.2,0.4,0.3,0.9,0.3,1.5v10.8c0,0.7-0.1,1.2-0.3,1.6c-0.2,0.3-0.7,0.5-1.4,0.5h-0.9V4.5L10.7,4.5z"/>
</svg>
