<?xml version="1.0" encoding="utf-8"?>
<!-- Generator: Adobe Illustrator 21.1.0, SVG Export Plug-In . SVG Version: 6.00 Build 0)  -->
<svg version="1.1" id="Слой_1" xmlns="http://www.w3.org/2000/svg" xmlns:xlink="http://www.w3.org/1999/xlink" x="0px" y="0px"
	 viewBox="0 0 24 24" style="enable-background:new 0 0 24 24;" xml:space="preserve">
<title>Viber icon</title>
<g>
	<path d="M20.8,2.3c-0.6-0.5-3-2.3-8.4-2.3c0,0-6.3-0.4-9.4,2.5C1.3,4.2,0.7,6.7,0.6,9.8c-0.1,3.1-0.1,9,5.5,10.5v2.4
		c0,0,0,1,0.6,1.2c0.8,0.3,1.2-0.5,2-1.3l1.4-1.6c3.8,0.3,6.8-0.4,7.1-0.5c0.8-0.3,5.2-0.8,5.9-6.6C23.9,7.9,22.8,4.1,20.8,2.3
		 M21.5,13.5c-0.6,4.9-4.2,5.2-4.8,5.4c-0.3,0.1-2.9,0.7-6.1,0.5c0,0-2.4,2.9-3.2,3.7c-0.1,0.1-0.3,0.2-0.3,0.1
		c-0.1,0-0.2-0.2-0.2-0.4l0-4C2,17.5,2.3,12.5,2.4,9.9c0.1-2.6,0.5-4.7,2-6.2c2.6-2.4,8-2,8-2c4.5,0,6.7,1.4,7.2,1.8
		C21.2,5,22.1,8.4,21.5,13.5"/>
	<path d="M14.6,10c-0.2,0-0.3-0.1-0.3-0.3c-0.1-1-0.5-1.5-1.5-1.6c-0.2,0-0.3-0.2-0.3-0.3c0-0.2,0.2-0.3,0.3-0.3
		c1.3,0.1,2,0.8,2.1,2.2C15,9.8,14.8,10,14.6,10C14.7,10,14.7,10,14.6,10L14.6,10"/>
	<path d="M16.2,10.5c-0.2,0-0.3-0.1-0.3-0.3l0,0C16,9.3,15.6,8.3,15,7.6c-0.7-0.7-1.6-1.1-2.7-1.2c-0.2,0-0.3-0.2-0.3-0.3
		c0-0.2,0.2-0.3,0.3-0.3c1.3,0.1,2.3,0.5,3.1,1.3c0.7,0.8,1.1,1.8,1.1,3C16.5,10.4,16.4,10.5,16.2,10.5"/>
	<path d="M17.8,11.1c-0.2,0-0.3-0.1-0.3-0.3c0-1.9-0.5-3.3-1.6-4.3c-1.1-1-2.5-1.6-4-1.6c-0.2,0-0.3-0.1-0.3-0.3v0
		c0-0.2,0.1-0.3,0.3-0.3c1.8,0,3.3,0.6,4.5,1.8c1.2,1.3,1.9,3,1.8,4.8C18.1,11,18,11.1,17.8,11.1L17.8,11.1z M12.9,13.7
		c0,0,0.4,0,0.6-0.2l0.4-0.6c0.2-0.3,0.7-0.4,1.2-0.2c0.8,0.4,1.5,1,2.2,1.5c0.3,0.3,0.4,0.7,0.2,1.1v0c-0.2,0.4-0.5,0.8-0.9,1.1
		c-0.3,0.3-0.7,0.4-1.1,0.5c-0.1,0-0.3,0-0.4-0.1v0c-0.5-0.1-1.3-0.5-2.6-1.2c-1.2-0.6-2.2-1.4-3.2-2.3l0,0l0,0l0,0l0,0
		c-0.9-1-1.7-2-2.3-3.2C6.4,9.3,6,8.5,5.7,7.6l0,0C5.6,7.4,5.6,7.2,5.6,7c0-0.3,0.2-0.6,0.5-0.9c0.4-0.4,0.7-0.7,1.2-0.9h0
		C7.7,4.9,8.1,5,8.4,5.3C9,6,9.5,6.7,9.9,7.4c0.3,0.5,0.1,1-0.2,1.3L9.2,9.1C8.9,9.4,8.9,9.8,8.9,9.8S9.8,12.9,12.9,13.7"/>
</g>
</svg>
